<?xml version="1.0" encoding="UTF-8" standalone="no"?>
<!DOCTYPE svg PUBLIC "-//W3C//DTD SVG 1.1//EN" "http://www.w3.org/Graphics/SVG/1.1/DTD/svg11.dtd">
<svg width="100%" height="100%" viewBox="0 0 1109 515" version="1.1" xmlns="http://www.w3.org/2000/svg" xmlns:xlink="http://www.w3.org/1999/xlink" xml:space="preserve" xmlns:serif="http://www.serif.com/" style="fill-rule:evenodd;clip-rule:evenodd;stroke-linejoin:round;stroke-miterlimit:2;">
    <g id="Mesa-de-trabajo2" serif:id="Mesa de trabajo2" transform="matrix(1,0,0,0.977876,716.47713,821.796556)">
        <rect x="-716.477" y="-840.389" width="1108.248" height="526.185" style="fill:none;"/>
        <g id="Capa_x0020_1" transform="matrix(0.028346,0,0,0.028988,-705.47713,-877.859481)">
            <g id="_1218073448">
                <path d="M22903,13169C22724,13169 22606,13263 22516,13400C22435,13524 22399,13637 22327,13779C22138,14151 22000,14592 21812,14965L21226,16081C21089,16319 20950,16553 20807,16796C20667,17033 20502,17239 20336,17460C20051,17841 19570,18428 19036,18428C18512,18428 18332,18264 17964,17979C17472,17599 17110,16844 16967,16243C16602,14696 17044,12395 17397,10808L17583,10041C17658,9785 17706,9527 17772,9276C17933,8671 18124,8033 18340,7445C18519,6956 18685,6363 19014,5954C19206,5715 19377,5534 19663,5392C20972,4743 22480,4868 23909,4868C23909,5186 24062,5653 24130,5961C24213,6337 24300,6709 24366,7066C24468,7625 24503,8146 24992,8425C25107,8491 25349,8554 25533,8554L29168,8554C29564,8554 29823,8392 30008,8080C30174,7801 30691,5192 30766,4868C31639,4868 32928,4787 33773,4981C34579,5166 35376,5451 35809,6167C36122,6686 36502,7912 36673,8500C36713,8635 36745,8775 36790,8925C36834,9074 36873,9186 36913,9343C37203,10506 37495,11692 37643,12893C37653,12977 37652,13047 37664,13129C37848,14374 37942,15768 37413,16928C37377,17006 37331,17087 37289,17165C37013,17674 36431,18428 35768,18428C35365,18428 35134,18304 34850,18083C34748,18003 34656,17896 34562,17803C34220,17465 33876,16892 33623,16474C33111,15626 32724,14710 32322,13805C32215,13565 31977,12873 31508,13292C31439,13353 31382,13400 31311,13456C31181,13560 31003,13679 30838,13731C30291,13904 29570,13885 29039,13581C28320,13169 28652,13067 28058,13067C27903,13067 27872,13041 27725,13039C27406,13035 26370,12984 26172,13138C26105,13191 26070,13243 25997,13298C25311,13818 24569,14018 23728,13685C23525,13605 23472,13553 23312,13431L23130,13277C23072,13227 23004,13169 22903,13169ZM24192,4868L30457,4868C30457,5092 30022,6989 29965,7263C29872,7708 29831,8017 29477,8219C29299,8321 29097,8288 28832,8296C28697,8300 28656,8323 28498,8323L26822,8322C26582,8322 26316,8342 26089,8307C25852,8271 25551,8319 25348,8275C25201,8242 24983,8094 24898,7978C24782,7821 24755,7597 24715,7387C24570,6629 24289,5623 24192,4868ZM31514,4610C31599,4432 31693,3991 32158,3991C32678,3991 34193,4144 34537,4448C34616,4518 34696,4603 34752,4697C34790,4761 34797,4782 34825,4856C34852,4926 34866,4995 34891,5048C34783,5023 34658,4970 34549,4927C33499,4515 32629,4610 31514,4610ZM19784,4996C19801,4787 19989,4542 20133,4444C20543,4165 21935,3991 22439,3991C22624,3991 22797,4083 22898,4177C22989,4263 23096,4455 23109,4610C22922,4610 22830,4585 22672,4583C22486,4579 22415,4611 22233,4610C21302,4607 21016,4637 20165,4888C20048,4922 19903,4987 19784,4996ZM16535,14845C16535,15746 16706,16689 17139,17412C17479,17979 18128,18712 18855,18712C19345,18712 19450,18684 19865,18381C20107,18204 20304,17975 20492,17744L21142,16822C21219,16696 21276,16589 21351,16464C21529,16170 21999,15227 22121,14965L22634,13776C22692,13630 22737,13503 22852,13427C23052,13533 23200,13759 23496,13891C24080,14150 24597,14189 25220,14042L25446,13959C25729,13865 26013,13651 26237,13461C26277,13426 26392,13324 26435,13324L28188,13324C28344,13324 28590,13680 28987,13865C29862,14273 30973,14211 31637,13550C31696,13490 31731,13446 31797,13401C31926,13487 31945,13605 32007,13759C32169,14158 32381,14554 32545,14922L33520,16809C33959,17535 34706,18712 35639,18712C36001,18712 36055,18698 36378,18549C37001,18261 37482,17497 37735,16863C37810,16675 37881,16478 37927,16282C38169,15249 38035,13790 37886,12726L37656,11384C37606,11150 37569,10952 37516,10725C37317,9878 37136,9051 36867,8228L36684,7638C36653,7547 36621,7435 36584,7351C36537,7242 36513,7169 36474,7049C36408,6850 36338,6664 36258,6491C36115,6182 35894,5739 35632,5519C35551,5452 35240,5224 35149,5203C35149,4808 34968,4322 34623,4182C33696,3806 33202,3759 32107,3759C31812,3759 31666,3839 31520,3997C31420,4104 31282,4409 31282,4610L23367,4610C23356,4100 22968,3733 22516,3733C22000,3733 21089,3840 20629,3960C20207,4069 19852,4205 19646,4575C19451,4925 19639,5015 19286,5273C18516,5835 18250,6896 17960,7710C17753,8291 17401,9562 17243,10190L16878,11965C16829,12299 16768,12590 16723,12893C16651,13383 16535,14348 16535,14845Z" style="fill:rgb(6,6,6);"/>
                <path d="M2175,11467L2201,11467C2201,11880 2349,12394 2253,12808L2175,12191C2167,11956 2175,11704 2175,11467ZM1995,10127C2058,10227 2041,10378 2029,10418C2028,10422 2024,10431 2021,10436C1993,10317 1995,10277 1995,10127ZM5475,10539C5213,10539 5322,10146 5321,9972C5319,9672 5253,9437 5501,9379C5660,9486 5585,9612 5626,9976C5649,10175 5649,10539 5475,10539ZM1995,10127C1947,10052 1943,9768 1943,9689L1969,9689C1969,9869 1995,9940 1995,10127ZM1917,9457L1943,9457L1943,9663L1917,9663L1917,9457ZM1892,9302L1917,9302L1917,9431L1892,9431L1892,9302ZM5011,7471L5036,6155C5040,5942 5120,5830 5297,5771C5334,5759 5679,5736 5790,5816C5856,5862 5939,5975 5939,6079L5939,7575C5939,7941 5682,7987 5372,7987C5143,7987 5011,7710 5011,7471ZM8620,5693C8760,5893 8878,6621 8878,6827L8878,7678C8878,8328 8805,8871 8775,9482L8709,10341C8696,10439 8705,10651 8697,10798C8642,11790 8664,12940 8863,13880C9038,14706 8968,15616 8604,16375C8507,16575 8080,17393 7873,17449L7573,15918C7553,15790 7560,15712 7535,15595C7436,15130 7504,14277 7559,13835C7652,13078 7902,11943 8114,11219L8391,9923C8675,8498 8646,7666 8646,6182C8646,5980 8620,5889 8620,5693ZM2278,6853C2278,7856 2388,8775 2503,9644C2564,10101 2649,10506 2745,10924C2791,11126 2868,11314 2918,11498C2975,11711 3020,11913 3075,12115C3223,12666 3381,13479 3412,14046C3423,14243 3424,14584 3453,14778C3476,14928 3446,15317 3424,15475C3351,15979 3337,16260 3207,16778C3155,16984 3100,17191 3052,17397C2962,17337 2916,17273 2849,17188C2509,16757 2237,16307 2113,15757C1833,14514 2101,14276 2150,13221C2155,13105 2173,13127 2175,13014C2256,13053 2399,13058 2466,12996C2628,12847 2469,11420 2441,11253C2340,10652 2095,8956 2097,8478C2098,8202 2046,7863 2046,7446C2046,7094 2085,6813 2098,6492C2109,6233 2196,5944 2311,5725L2330,5693C2330,6057 2278,6440 2278,6853ZM8595,5641L8602,5649C8602,5648 8592,5644 8595,5641ZM5604,5409L5604,4326C5604,4201 5801,4253 6039,4278C6221,4297 6837,4543 7080,4629L7658,4876C7834,4964 8288,5152 8328,5341C8358,5484 8363,5710 8363,5873L8389,7524C8383,8525 8132,9931 7898,10900C7881,10969 7875,11036 7857,11117L7683,11794C7520,12404 7418,13008 7306,13659C6988,15506 7641,17441 7641,17603C7641,17728 7351,17900 7254,17964C7098,18068 6957,18144 6774,18231C6421,18400 5768,18454 5295,18454C4706,18454 4151,18241 3701,17959C3145,17611 3295,17722 3454,17000C3697,15892 3784,15007 3667,13843L3351,12045C3271,11637 3014,10871 2903,10353C2837,10042 2815,9740 2753,9420C2697,9127 2659,8790 2638,8478C2616,8144 2562,7844 2562,7471C2562,7095 2553,5783 2590,5463C2625,5163 2946,5067 3276,4885L4621,4348C4662,4333 5346,4120 5346,4326L5346,5512C4850,5523 4753,5980 4753,6414L4753,7600C4753,7855 5008,8142 5235,8227C5420,8296 5348,8322 5346,8605C5344,8794 5346,8984 5346,9173C5155,9189 5063,9342 5063,9534L5063,10462C5063,10643 5224,10737 5372,10771C5372,10892 5373,11012 5372,11132C5371,11373 5327,11442 5501,11442C5661,11442 5604,11049 5604,10771C5699,10764 5726,10727 5778,10662C5818,10613 5862,10542 5862,10462L5862,9431C5862,9342 5823,9282 5773,9236L5604,9147L5604,8271C5985,8182 6197,7957 6197,7523L6197,6234C6197,6004 6153,5819 6048,5687C6004,5633 5914,5560 5844,5530C5742,5488 5604,5515 5604,5409ZM5346,2238L5346,3991C4667,3991 4039,4285 3435,4528C3235,4609 3053,4688 2863,4782C2473,4973 2251,5244 2063,5632C1727,6327 1772,7353 1814,8142L1840,8786C1760,8808 1788,8794 1710,8888L1622,8982C1565,9059 1587,9114 1599,9180C1666,9544 1649,9860 1747,10374C1787,10581 1911,10676 2098,10720C2083,10899 2020,10793 1994,11054C1940,11606 1946,11322 1944,11932C1944,12098 1909,12211 1925,12399L1936,12587C1955,13165 1711,14261 1711,14819C1711,15743 2023,16566 2566,17290C2992,17861 3546,18243 4195,18523C4853,18807 5976,18782 6658,18554C7369,18316 7530,18153 8072,17673L8326,17386C9002,16529 9355,15324 9177,14108C9146,13898 9102,13726 9069,13520C8964,12863 8895,11531 8954,10796L8981,10307C8982,10188 8997,9954 9014,9825C9030,9710 9047,9475 9057,9352C9064,9269 9053,9180 9060,9097C9068,8998 9084,8990 9085,8864L9135,7883C9135,7707 9162,7576 9162,7368C9162,6407 9074,5431 8271,4882C8092,4760 7919,4684 7707,4595C7287,4418 6186,3991 5759,3991L5604,3991L5604,2186C5604,2060 5346,2008 5346,2238Z" style="fill:rgb(6,6,6);"/>
                <path d="M9935,10410L9935,13143C9935,13230 9981,13324 10064,13324L12256,13324L12256,15618L9884,15618C9798,15618 9597,15902 10116,15902L10993,15900C11179,15909 11398,15905 11586,15903C11720,15901 11728,15882 11844,15875C11986,15867 12031,15897 12149,15898C12264,15899 12539,15915 12539,15773L12539,13221C12539,12992 12321,13040 12101,13040L10245,13040C10238,12959 10219,12949 10219,12860L10219,10591C10219,10478 10289,10533 10399,10538L13032,10529C13101,10530 13085,10514 13184,10514L15220,10539C15220,10871 15246,11108 15246,11442C15246,11997 15272,13228 15246,13711C15226,14094 15206,13785 15245,14253L15246,15747C15246,16760 14819,17730 13897,18188C13543,18363 13314,18431 12875,18429L8440,18428C7937,18428 7851,18372 7924,18686C7982,18700 7984,18712 8053,18712L12849,18712C13502,18712 14080,18486 14574,18065L14644,18006C14673,17981 14671,17984 14698,17958C14915,17754 15110,17456 15238,17183C15330,16986 15504,16403 15504,16134L15504,10385C15504,10187 15141,10257 14963,10256C13381,10249 11735,10276 10166,10254C10004,10252 9935,10250 9935,10410Z" style="fill:rgb(6,6,6);"/>
                <path d="M7899,3991C7899,4116 7881,4172 7976,4172L15246,4172L15234,5683C15252,5872 15198,5940 15238,6283L15246,6750L10425,6750C10036,6750 9832,6629 9832,6904C9832,6965 9875,7007 9935,7007L15324,7007C15444,7007 15504,6947 15504,6827L15504,4094C15504,3969 15422,3888 15298,3888L8002,3888C7941,3888 7899,3931 7899,3991Z" style="fill:rgb(6,6,6);"/>
                <path d="M23522,11622C23522,11512 23589,11312 23625,11235C23650,11181 23686,11125 23724,11077C23841,10929 23946,10817 24132,10737C24558,10555 24950,10644 25291,10910C25731,11255 25784,12249 25027,12637C24601,12855 24140,12745 23811,12416C23628,12234 23522,11979 23522,11622ZM24579,13014C24974,13014 25251,12897 25514,12634C25854,12294 25894,12052 25894,11571C25894,10822 25110,10204 24254,10395C24181,10412 24139,10437 24083,10456C23987,10487 23979,10483 23904,10535C23846,10576 23808,10599 23750,10639C22908,11211 23098,13014 24579,13014Z" style="fill:rgb(6,6,6);"/>
                <path d="M30148,12757C29685,12757 29333,12587 29115,12165C28868,11687 29060,11037 29571,10762C30261,10392 31127,10892 31127,11674C31127,11982 31002,12262 30850,12428C30745,12543 30392,12757 30148,12757ZM28730,11622C28730,12200 28988,12649 29494,12894C30292,13281 31385,12747 31385,11803C31385,11493 31398,11391 31252,11085C31089,10743 30678,10385 30251,10385C29917,10385 29762,10360 29443,10531L29105,10786C29101,10790 29096,10795 29092,10799C28890,11008 28730,11370 28730,11622Z" style="fill:rgb(6,6,6);"/>
                <path d="M21434,7807C21244,7807 20970,7373 20970,7343L20970,6646L21872,6646C21872,7273 21937,7273 21698,7529C21649,7581 21493,7807 21434,7807ZM20686,6543C20686,7531 20586,7436 20963,7813C21388,8238 21363,8277 21814,7826C22226,7413 22126,7559 22114,7082C22109,6830 22263,6363 21820,6363L20841,6363C20784,6363 20686,6420 20686,6543Z" style="fill:rgb(6,6,6);"/>
                <path d="M20222,8967L19577,8967L19577,8064L20273,8064C20299,8136 20663,8470 20712,8503C20666,8571 20336,8967 20222,8967ZM19294,8915C19294,9330 19516,9225 20325,9225C20422,9225 20496,9167 20551,9116L20658,9016C20662,9012 20667,9007 20671,9003L20933,8698C20936,8694 20941,8688 20945,8684C21053,8548 21041,8482 20952,8365L20678,8046C20402,7724 20470,7833 19860,7782C19744,7773 19494,7777 19420,7804C19292,7850 19285,7989 19297,8164C19305,8286 19308,8356 19307,8492C19306,8599 19320,8577 19318,8681C19315,8774 19294,8788 19294,8915Z" style="fill:rgb(6,6,6);"/>
                <path d="M22594,8064C22972,8064 23264,8006 23264,8142L23264,8967C22396,8967 22614,9033 22327,8770C22323,8766 22317,8761 22313,8758L22104,8528C22153,8455 22212,8408 22277,8341C22396,8217 22362,8261 22542,8219C22535,8139 22480,8064 22594,8064ZM22104,7987L22088,8100C21980,8354 21553,8372 21904,8728C22480,9313 22128,9225 23341,9225C23462,9225 23522,9164 23522,9044L23522,7961C23522,7684 22938,7807 22828,7803C22661,7795 22452,7768 22313,7861C22220,7925 22219,7977 22104,7987Z" style="fill:rgb(6,6,6);"/>
                <path d="M21434,9199C21484,9233 21872,9623 21872,9689L21872,10385C21610,10385 21180,10414 20944,10359C20944,10126 20891,9738 21002,9592C21060,9516 21351,9221 21434,9199ZM20686,9637L20686,10462C20686,10514 20745,10576 20784,10596C20844,10628 20910,10619 20994,10618L21580,10638C22248,10597 22130,10694 22130,9818C22130,9684 22126,9554 22072,9463C22020,9374 21726,9085 21655,9029C21457,8875 21426,8771 21227,8967L21087,9110C20968,9217 20686,9485 20686,9637Z" style="fill:rgb(6,6,6);"/>
                <path d="M32906,6853C32906,6030 34015,6069 34015,6750C34015,6934 33998,7123 33839,7245C33570,7451 33424,7395 33250,7333C33053,7264 32906,7092 32906,6853ZM32648,6801C32648,7293 33002,7626 33344,7626C33607,7626 33883,7637 34111,7362C34203,7252 34306,6949 34288,6760C34267,6535 34203,6375 34051,6223C33553,5723 32648,6037 32648,6801Z" style="fill:rgb(6,6,6);"/>
                <path d="M33473,9637C33802,9637 34045,9949 34006,10244C33973,10490 33969,10497 33829,10637C33716,10749 33593,10793 33438,10779C32713,10713 32769,9637 33473,9637ZM32648,10230C32648,10739 33052,11029 33525,11029C33877,11029 34272,10701 34272,10359C34272,10110 34289,9851 34047,9630C33555,9179 32648,9381 32648,10230Z" style="fill:rgb(6,6,6);"/>
                <path d="M31230,8632C31230,8395 31211,8281 31397,8102C31777,7737 32313,8049 32313,8451L32313,8606C32313,8979 31800,9282 31417,8960C31344,8898 31230,8754 31230,8632ZM30972,8503C30972,9005 31331,9328 31643,9328C32007,9328 32149,9343 32411,9064C32775,8675 32609,7703 31772,7703C31293,7703 30972,8023 30972,8503Z" style="fill:rgb(6,6,6);"/>
                <path d="M34633,8580C34633,8376 34633,8234 34807,8083C35163,7772 35742,8003 35712,8546C35669,9330 34633,9221 34633,8580ZM35046,9328C35300,9328 35568,9345 35772,9100C35822,9041 35882,8960 35913,8880C36177,8203 35626,7488 34835,7776C34362,7949 34209,8607 34533,9041C34624,9164 34840,9328 35046,9328Z" style="fill:rgb(6,6,6);"/>
                <path d="M5140,7368C5140,7702 5138,7586 5477,7576C5515,7575 5836,7654 5836,7523C5836,7367 5712,7329 5575,7319C5503,7313 5206,7353 5140,7368Z" style="fill:rgb(6,6,6);"/>
                <path d="M5140,7007C5140,7209 5089,7162 5733,7162C5868,7162 5959,6883 5500,6904L5296,6908C5228,6912 5140,6924 5140,7007Z" style="fill:rgb(6,6,6);"/>
                <path d="M5140,6724C5957,6914 5910,6518 5733,6518C5052,6518 5140,6470 5140,6724Z" style="fill:rgb(6,6,6);"/>
                <path d="M5166,6208C5166,6378 5150,6337 5681,6337C5751,6337 5753,6325 5810,6311C5810,6057 5779,6105 5269,6105C5209,6105 5166,6148 5166,6208Z" style="fill:rgb(6,6,6);"/>
            </g>
        </g>
    </g>
</svg>
